<svg width="44" height="34" viewBox="0 0 44 34" fill="none" xmlns="http://www.w3.org/2000/svg">
<path fill-rule="evenodd" clip-rule="evenodd" d="M43.9547 7.04362V17.4455C43.956 17.463 43.9647 17.4765 43.9734 17.4899C43.9827 17.5042 43.9919 17.5185 43.9919 17.5373C43.9919 17.5548 43.9829 17.5683 43.9737 17.582C43.9649 17.5951 43.956 17.6084 43.9547 17.6258V27.9667C43.9547 28.3992 43.5993 28.747 43.1641 28.747H40.5262C40.0909 28.747 39.7387 28.3992 39.7387 27.9667C39.7387 27.5351 40.0909 27.1859 40.5262 27.1859H42.3765V18.3161H35.2504C34.815 18.3161 34.4627 17.9671 34.4627 17.5373V7.82209H28.1243V22.1412C28.1243 22.5704 27.772 22.9221 27.3367 22.9221C26.9013 22.9221 26.5461 22.5704 26.5461 22.1412V7.04362V2.55244H1.5846V27.1859H3.46361C3.89891 27.1859 4.25412 27.5351 4.25412 27.9667C4.25412 28.3992 3.89891 28.747 3.46361 28.747H0.79699C0.361508 28.747 0.00638795 28.3992 0.00638795 27.9667V1.77456C0.00638795 1.34421 0.361508 0.996092 0.79699 0.996092H27.3367C27.772 0.996092 28.1243 1.34421 28.1243 1.77456V6.26217H43.1641C43.5993 6.26217 43.9547 6.61324 43.9547 7.04362ZM36.038 16.7558H42.3765V7.82209H36.038V16.7558ZM26.5089 27.9691C26.5089 24.6507 29.2413 21.9521 32.6009 21.9521C35.9549 21.9521 38.6845 24.6507 38.6845 27.9691C38.6845 31.2893 35.9549 33.9888 32.6009 33.9888C29.2413 33.9888 26.5089 31.2893 26.5089 27.9691ZM28.087 27.9691C28.087 30.4294 30.1121 32.4292 32.6009 32.4292C35.0842 32.4292 37.1064 30.4294 37.1064 27.9691C37.1064 25.5103 35.0842 23.5114 32.6009 23.5114C30.1121 23.5114 28.087 25.5103 28.087 27.9691ZM5.30798 27.9667C5.30798 24.648 8.03767 21.9482 11.3974 21.9482C14.7541 21.9482 17.4867 24.648 17.4867 27.9667C17.4867 31.2878 14.7541 33.9858 11.3974 33.9858C8.03767 33.9858 5.30798 31.2878 5.30798 27.9667ZM6.88348 27.9667C6.88348 30.4265 8.90835 32.4265 11.3974 32.4265C13.8834 32.4265 15.9085 30.4265 15.9085 27.9667C15.9085 25.5079 13.8834 23.5105 11.3974 23.5105C8.90835 23.5105 6.88348 25.5079 6.88348 27.9667ZM19.3282 27.1859H24.6672C25.1025 27.1859 25.4547 27.5351 25.4547 27.9667C25.4547 28.3992 25.1025 28.747 24.6672 28.747H19.3282C18.8929 28.747 18.5407 28.3992 18.5407 27.9667C18.5407 27.5351 18.8929 27.1859 19.3282 27.1859Z" fill="url(#paint0_linear)"/>
<path fill-rule="evenodd" clip-rule="evenodd" d="M43.9547 7.04362V17.4455C43.956 17.463 43.9647 17.4765 43.9734 17.4899C43.9827 17.5042 43.9919 17.5185 43.9919 17.5373C43.9919 17.5548 43.9829 17.5683 43.9737 17.582C43.9649 17.5951 43.956 17.6084 43.9547 17.6258V27.9667C43.9547 28.3992 43.5993 28.747 43.1641 28.747H40.5262C40.0909 28.747 39.7387 28.3992 39.7387 27.9667C39.7387 27.5351 40.0909 27.1859 40.5262 27.1859H42.3765V18.3161H35.2504C34.815 18.3161 34.4627 17.9671 34.4627 17.5373V7.82209H28.1243V22.1412C28.1243 22.5704 27.772 22.9221 27.3367 22.9221C26.9013 22.9221 26.5461 22.5704 26.5461 22.1412V7.04362V2.55244H1.5846V27.1859H3.46361C3.89891 27.1859 4.25412 27.5351 4.25412 27.9667C4.25412 28.3992 3.89891 28.747 3.46361 28.747H0.79699C0.361508 28.747 0.00638795 28.3992 0.00638795 27.9667V1.77456C0.00638795 1.34421 0.361508 0.996092 0.79699 0.996092H27.3367C27.772 0.996092 28.1243 1.34421 28.1243 1.77456V6.26217H43.1641C43.5993 6.26217 43.9547 6.61324 43.9547 7.04362ZM36.038 16.7558H42.3765V7.82209H36.038V16.7558ZM26.5089 27.9691C26.5089 24.6507 29.2413 21.9521 32.6009 21.9521C35.9549 21.9521 38.6845 24.6507 38.6845 27.9691C38.6845 31.2893 35.9549 33.9888 32.6009 33.9888C29.2413 33.9888 26.5089 31.2893 26.5089 27.9691ZM28.087 27.9691C28.087 30.4294 30.1121 32.4292 32.6009 32.4292C35.0842 32.4292 37.1064 30.4294 37.1064 27.9691C37.1064 25.5103 35.0842 23.5114 32.6009 23.5114C30.1121 23.5114 28.087 25.5103 28.087 27.9691ZM5.30798 27.9667C5.30798 24.648 8.03767 21.9482 11.3974 21.9482C14.7541 21.9482 17.4867 24.648 17.4867 27.9667C17.4867 31.2878 14.7541 33.9858 11.3974 33.9858C8.03767 33.9858 5.30798 31.2878 5.30798 27.9667ZM6.88348 27.9667C6.88348 30.4265 8.90835 32.4265 11.3974 32.4265C13.8834 32.4265 15.9085 30.4265 15.9085 27.9667C15.9085 25.5079 13.8834 23.5105 11.3974 23.5105C8.90835 23.5105 6.88348 25.5079 6.88348 27.9667ZM19.3282 27.1859H24.6672C25.1025 27.1859 25.4547 27.5351 25.4547 27.9667C25.4547 28.3992 25.1025 28.747 24.6672 28.747H19.3282C18.8929 28.747 18.5407 28.3992 18.5407 27.9667C18.5407 27.5351 18.8929 27.1859 19.3282 27.1859Z" fill="#FF3B4A"/>
<defs>
<linearGradient id="paint0_linear" x1="17" y1="-15.0869" x2="-8.85485" y2="27.1267" gradientUnits="userSpaceOnUse">
<stop stop-color="white"/>
<stop offset="1" stop-color="white"/>
</linearGradient>
</defs>
</svg>
