<svg width="41" height="42" viewBox="0 0 41 42" fill="none" xmlns="http://www.w3.org/2000/svg">
<path fill-rule="evenodd" clip-rule="evenodd" d="M20.7112 26.6571C17.6518 26.6571 15.1618 24.1631 15.1618 21.0918C15.1618 18.0226 17.6518 15.5286 20.7112 15.5286C23.7675 15.5286 26.2551 18.0226 26.2551 21.0918C26.2551 24.1631 23.7675 26.6571 20.7112 26.6571ZM20.7112 16.9707C18.4428 16.9707 16.6 18.82 16.6 21.0918C16.6 23.3636 18.4428 25.2148 20.7112 25.2148C22.974 25.2148 24.8168 23.3636 24.8168 21.0918C24.8168 18.82 22.974 16.9707 20.7112 16.9707ZM18.2939 41.1888C17.9652 41.1888 17.6781 40.9627 17.5971 40.6436L16.3599 35.6809C15.3967 35.3825 14.4466 34.9767 13.5278 34.4756L9.12693 37.1254C8.84511 37.2953 8.4824 37.2485 8.24994 37.0188L4.83063 33.5882C4.59826 33.3559 4.55392 32.9933 4.72356 32.7094L7.36513 28.302C6.8745 27.39 6.48028 26.4411 6.18805 25.4637L1.21278 24.2167C0.894451 24.137 0.667411 23.8464 0.667411 23.5187V18.6747C0.667411 18.3423 0.894451 18.0534 1.21278 17.9753L6.15929 16.7368C6.46205 15.7606 6.86659 14.8075 7.36251 13.8923L4.72102 9.4775C4.55139 9.19304 4.59585 8.82898 4.828 8.59574L8.24216 5.1728C8.47711 4.93749 8.83986 4.88896 9.12186 5.06509L13.5226 7.7113C14.4283 7.22466 15.3758 6.82566 16.3493 6.53381L17.5918 1.5439C17.6727 1.22306 17.9599 0.997204 18.2889 0.997204H23.1203C23.4491 0.997204 23.7388 1.22306 23.8172 1.5439L25.0545 6.51045C26.0255 6.81352 26.9755 7.21788 27.8838 7.70773L32.2898 5.05651C32.5665 4.89459 32.932 4.93749 33.167 5.16748L36.5811 8.59068C36.816 8.82392 36.8603 9.18684 36.6907 9.47306L34.0491 13.8923C34.5346 14.798 34.9288 15.7476 35.2211 16.7184L40.2014 17.9702C40.5224 18.0484 40.747 18.3391 40.747 18.6694V23.5095C40.747 23.839 40.5224 24.1302 40.2014 24.2075L35.2211 25.4587C34.9288 26.439 34.5346 27.388 34.0517 28.2878L36.6959 32.7038C36.8655 32.9897 36.8212 33.3529 36.5863 33.5858L33.1721 37.0164C32.9373 37.2485 32.5744 37.2881 32.295 37.1254L27.8891 34.4732C26.9807 34.9702 26.0306 35.371 25.0571 35.6777L23.825 40.6406C23.744 40.9603 23.457 41.1855 23.1255 41.1855L18.2939 41.1888ZM13.5149 32.9219C13.6375 32.9219 13.7626 32.9533 13.8748 33.0184C14.9295 33.6282 16.0336 34.0961 17.1534 34.4084C17.4013 34.4786 17.5918 34.6807 17.657 34.9315L18.8578 39.7464L22.5643 39.7435L23.7625 34.9264C23.825 34.6781 24.0155 34.4786 24.2635 34.4084C25.399 34.0887 26.5005 33.6202 27.542 33.0166C27.769 32.8829 28.0457 32.8873 28.2703 33.0199L32.551 35.6001L35.1741 32.9648L32.6032 28.6758C32.4673 28.4497 32.4673 28.1694 32.5953 27.9418C33.1878 26.9141 33.642 25.8165 33.95 24.6725C34.0179 24.4212 34.2163 24.2258 34.4693 24.1631L39.3086 22.9456V19.2321L34.4693 18.0164C34.2163 17.9548 34.0179 17.7586 33.95 17.5058C33.6445 16.3727 33.1878 15.2698 32.5953 14.2336C32.4673 14.0098 32.47 13.7304 32.6032 13.5036L35.1688 9.21376L32.5482 6.58622L28.2676 9.16167C28.0457 9.29692 27.769 9.30317 27.5394 9.16761C26.4952 8.56437 25.3937 8.09669 24.261 7.77611C24.013 7.70773 23.8224 7.51 23.7597 7.25871L22.5591 2.4393H18.8527L17.6439 7.28714C17.5815 7.53904 17.3856 7.74029 17.1352 7.80748C15.9997 8.11711 14.9008 8.57471 13.8672 9.16906C13.6427 9.30317 13.3659 9.30018 13.1389 9.16167L8.86338 6.58798L6.24275 9.2194L8.80856 13.5036C8.94431 13.7304 8.94431 14.0098 8.81393 14.2359C8.21086 15.2891 7.74104 16.3967 7.42512 17.5292C7.35464 17.7811 7.15628 17.972 6.90568 18.0351L2.10567 19.2377V22.953L6.93965 24.1681C7.19288 24.2309 7.39119 24.4271 7.45905 24.679C7.76697 25.8147 8.22135 26.9165 8.81909 27.9539C8.94947 28.1812 8.94693 28.4615 8.8111 28.6856L6.24537 32.9698L8.86854 35.6025L13.1441 33.0264C13.259 32.9568 13.3868 32.9219 13.5149 32.9219Z" fill="url(#paint0_linear)"/>
<path fill-rule="evenodd" clip-rule="evenodd" d="M20.7112 26.6571C17.6518 26.6571 15.1618 24.1631 15.1618 21.0918C15.1618 18.0226 17.6518 15.5286 20.7112 15.5286C23.7675 15.5286 26.2551 18.0226 26.2551 21.0918C26.2551 24.1631 23.7675 26.6571 20.7112 26.6571ZM20.7112 16.9707C18.4428 16.9707 16.6 18.82 16.6 21.0918C16.6 23.3636 18.4428 25.2148 20.7112 25.2148C22.974 25.2148 24.8168 23.3636 24.8168 21.0918C24.8168 18.82 22.974 16.9707 20.7112 16.9707ZM18.2939 41.1888C17.9652 41.1888 17.6781 40.9627 17.5971 40.6436L16.3599 35.6809C15.3967 35.3825 14.4466 34.9767 13.5278 34.4756L9.12693 37.1254C8.84511 37.2953 8.4824 37.2485 8.24994 37.0188L4.83063 33.5882C4.59826 33.3559 4.55392 32.9933 4.72356 32.7094L7.36513 28.302C6.8745 27.39 6.48028 26.4411 6.18805 25.4637L1.21278 24.2167C0.894451 24.137 0.667411 23.8464 0.667411 23.5187V18.6747C0.667411 18.3423 0.894451 18.0534 1.21278 17.9753L6.15929 16.7368C6.46205 15.7606 6.86659 14.8075 7.36251 13.8923L4.72102 9.4775C4.55139 9.19304 4.59585 8.82898 4.828 8.59574L8.24216 5.1728C8.47711 4.93749 8.83986 4.88896 9.12186 5.06509L13.5226 7.7113C14.4283 7.22466 15.3758 6.82566 16.3493 6.53381L17.5918 1.5439C17.6727 1.22306 17.9599 0.997204 18.2889 0.997204H23.1203C23.4491 0.997204 23.7388 1.22306 23.8172 1.5439L25.0545 6.51045C26.0255 6.81352 26.9755 7.21788 27.8838 7.70773L32.2898 5.05651C32.5665 4.89459 32.932 4.93749 33.167 5.16748L36.5811 8.59068C36.816 8.82392 36.8603 9.18684 36.6907 9.47306L34.0491 13.8923C34.5346 14.798 34.9288 15.7476 35.2211 16.7184L40.2014 17.9702C40.5224 18.0484 40.747 18.3391 40.747 18.6694V23.5095C40.747 23.839 40.5224 24.1302 40.2014 24.2075L35.2211 25.4587C34.9288 26.439 34.5346 27.388 34.0517 28.2878L36.6959 32.7038C36.8655 32.9897 36.8212 33.3529 36.5863 33.5858L33.1721 37.0164C32.9373 37.2485 32.5744 37.2881 32.295 37.1254L27.8891 34.4732C26.9807 34.9702 26.0306 35.371 25.0571 35.6777L23.825 40.6406C23.744 40.9603 23.457 41.1855 23.1255 41.1855L18.2939 41.1888ZM13.5149 32.9219C13.6375 32.9219 13.7626 32.9533 13.8748 33.0184C14.9295 33.6282 16.0336 34.0961 17.1534 34.4084C17.4013 34.4786 17.5918 34.6807 17.657 34.9315L18.8578 39.7464L22.5643 39.7435L23.7625 34.9264C23.825 34.6781 24.0155 34.4786 24.2635 34.4084C25.399 34.0887 26.5005 33.6202 27.542 33.0166C27.769 32.8829 28.0457 32.8873 28.2703 33.0199L32.551 35.6001L35.1741 32.9648L32.6032 28.6758C32.4673 28.4497 32.4673 28.1694 32.5953 27.9418C33.1878 26.9141 33.642 25.8165 33.95 24.6725C34.0179 24.4212 34.2163 24.2258 34.4693 24.1631L39.3086 22.9456V19.2321L34.4693 18.0164C34.2163 17.9548 34.0179 17.7586 33.95 17.5058C33.6445 16.3727 33.1878 15.2698 32.5953 14.2336C32.4673 14.0098 32.47 13.7304 32.6032 13.5036L35.1688 9.21376L32.5482 6.58622L28.2676 9.16167C28.0457 9.29692 27.769 9.30317 27.5394 9.16761C26.4952 8.56437 25.3937 8.09669 24.261 7.77611C24.013 7.70773 23.8224 7.51 23.7597 7.25871L22.5591 2.4393H18.8527L17.6439 7.28714C17.5815 7.53904 17.3856 7.74029 17.1352 7.80748C15.9997 8.11711 14.9008 8.57471 13.8672 9.16906C13.6427 9.30317 13.3659 9.30018 13.1389 9.16167L8.86338 6.58798L6.24275 9.2194L8.80856 13.5036C8.94431 13.7304 8.94431 14.0098 8.81393 14.2359C8.21086 15.2891 7.74104 16.3967 7.42512 17.5292C7.35464 17.7811 7.15628 17.972 6.90568 18.0351L2.10567 19.2377V22.953L6.93965 24.1681C7.19288 24.2309 7.39119 24.4271 7.45905 24.679C7.76697 25.8147 8.22135 26.9165 8.81909 27.9539C8.94947 28.1812 8.94693 28.4615 8.8111 28.6856L6.24537 32.9698L8.86854 35.6025L13.1441 33.0264C13.259 32.9568 13.3868 32.9219 13.5149 32.9219Z" fill="#FF3B4A"/>
<defs>
<linearGradient id="paint0_linear" x1="20.9887" y1="-22.5" x2="-22.9765" y2="19.4894" gradientUnits="userSpaceOnUse">
<stop stop-color="white"/>
<stop offset="1" stop-color="white"/>
</linearGradient>
</defs>
</svg>
