<svg width="40" height="38" viewBox="0 0 40 38" fill="none" xmlns="http://www.w3.org/2000/svg">
<path fill-rule="evenodd" clip-rule="evenodd" d="M39.6997 13.0666C38.6506 10.2529 37.1013 7.71028 35.091 5.50804C33.093 3.31948 30.7006 1.54644 27.9779 0.23844C27.6718 0.09252 27.3048 0.14432 27.0533 0.37696L9.56476 16.3386L7.54536 18.182C7.43625 18.2691 7.34225 18.3854 7.28463 18.5266C7.27568 18.5473 7.26648 18.5751 7.25724 18.5997L2.55471 30.8096L0.547616 36.0262C0.432368 36.3213 0.499106 36.6525 0.711416 36.889C0.871898 37.0652 1.09643 37.1581 1.32672 37.1581C1.40261 37.1581 1.48144 37.1489 1.5573 37.125L6.9359 35.6008L19.5855 32.0137C19.6643 31.9921 19.7432 31.9568 19.816 31.9107C19.8553 31.8831 19.8947 31.853 19.931 31.8228L21.9959 29.9376L39.4813 13.975C39.7329 13.7454 39.818 13.3848 39.6997 13.0666ZM3.77968 32.273C3.81295 32.2949 3.85243 32.3079 3.88599 32.3254C4.24353 32.55 4.57714 32.7981 4.85299 33.1041C5.12889 33.4066 5.34725 33.7595 5.53827 34.1339C5.5596 34.1676 5.56851 34.2097 5.58367 34.2473L2.70633 35.0645L3.77968 32.273ZM18.9458 30.4585L7.23309 33.7799C7.19974 33.7077 7.1422 33.6535 7.10583 33.5828C6.83586 32.9958 6.51149 32.4435 6.087 31.9767C5.65952 31.5111 5.13801 31.1411 4.57714 30.817C4.50738 30.7764 4.46491 30.7136 4.39515 30.6772L8.76731 19.3258L10.0771 18.1368L11.1353 19.2932L20.2494 29.2683L18.9458 30.4585ZM21.4834 28.1412L18.8365 25.2451L32.7383 12.5617C32.9171 12.3947 33.0079 12.1695 33.0079 11.9398C33.0079 11.7426 32.9383 11.5399 32.7897 11.3803C32.4805 11.04 31.9499 11.0178 31.6101 11.3274L17.7086 24.0117L17.1659 23.4144L15.0828 21.1302L28.9785 8.44732C29.1603 8.2792 29.2515 8.05512 29.2515 7.82484C29.2515 7.62768 29.1786 7.42552 29.0331 7.2648C28.7208 6.9262 28.1902 6.90516 27.8506 7.213L13.952 19.8991L11.311 17.0054L27.7567 1.9928C30.0761 3.18004 32.1287 4.737 33.857 6.63788C35.5973 8.54024 36.9617 10.722 37.932 13.1276L21.4834 28.1412Z" fill="url(#paint0_linear)"/>
<path fill-rule="evenodd" clip-rule="evenodd" d="M39.6997 13.0666C38.6506 10.2529 37.1013 7.71028 35.091 5.50804C33.093 3.31948 30.7006 1.54644 27.9779 0.23844C27.6718 0.09252 27.3048 0.14432 27.0533 0.37696L9.56476 16.3386L7.54536 18.182C7.43625 18.2691 7.34225 18.3854 7.28463 18.5266C7.27568 18.5473 7.26648 18.5751 7.25724 18.5997L2.55471 30.8096L0.547616 36.0262C0.432368 36.3213 0.499106 36.6525 0.711416 36.889C0.871898 37.0652 1.09643 37.1581 1.32672 37.1581C1.40261 37.1581 1.48144 37.1489 1.5573 37.125L6.9359 35.6008L19.5855 32.0137C19.6643 31.9921 19.7432 31.9568 19.816 31.9107C19.8553 31.8831 19.8947 31.853 19.931 31.8228L21.9959 29.9376L39.4813 13.975C39.7329 13.7454 39.818 13.3848 39.6997 13.0666ZM3.77968 32.273C3.81295 32.2949 3.85243 32.3079 3.88599 32.3254C4.24353 32.55 4.57714 32.7981 4.85299 33.1041C5.12889 33.4066 5.34725 33.7595 5.53827 34.1339C5.5596 34.1676 5.56851 34.2097 5.58367 34.2473L2.70633 35.0645L3.77968 32.273ZM18.9458 30.4585L7.23309 33.7799C7.19974 33.7077 7.1422 33.6535 7.10583 33.5828C6.83586 32.9958 6.51149 32.4435 6.087 31.9767C5.65952 31.5111 5.13801 31.1411 4.57714 30.817C4.50738 30.7764 4.46491 30.7136 4.39515 30.6772L8.76731 19.3258L10.0771 18.1368L11.1353 19.2932L20.2494 29.2683L18.9458 30.4585ZM21.4834 28.1412L18.8365 25.2451L32.7383 12.5617C32.9171 12.3947 33.0079 12.1695 33.0079 11.9398C33.0079 11.7426 32.9383 11.5399 32.7897 11.3803C32.4805 11.04 31.9499 11.0178 31.6101 11.3274L17.7086 24.0117L17.1659 23.4144L15.0828 21.1302L28.9785 8.44732C29.1603 8.2792 29.2515 8.05512 29.2515 7.82484C29.2515 7.62768 29.1786 7.42552 29.0331 7.2648C28.7208 6.9262 28.1902 6.90516 27.8506 7.213L13.952 19.8991L11.311 17.0054L27.7567 1.9928C30.0761 3.18004 32.1287 4.737 33.857 6.63788C35.5973 8.54024 36.9617 10.722 37.932 13.1276L21.4834 28.1412Z" fill="#FF3B4A"/>
<defs>
<linearGradient id="paint0_linear" x1="19" y1="-20.0476" x2="-18.9597" y2="21.803" gradientUnits="userSpaceOnUse">
<stop stop-color="white"/>
<stop offset="1" stop-color="white"/>
</linearGradient>
</defs>
</svg>
