<?xml version="1.0"?>
<svg xmlns="http://www.w3.org/2000/svg" xmlns:xlink="http://www.w3.org/1999/xlink" version="1.1" viewBox="0 0 172 172" width="20px" height="20px"><g fill="none" fill-rule="nonzero" stroke="none" stroke-width="1" stroke-linecap="butt" stroke-linejoin="miter" stroke-miterlimit="10" stroke-dasharray="" stroke-dashoffset="0" font-family="none" font-weight="none" font-size="none" text-anchor="none" style="mix-blend-mode: normal"><path d="M0,172v-172h172v172z" fill="none"/><g fill="#cccccc"><g id="surface1"><path d="M171.04387,36.8756c-6.22776,2.76503 -12.92067,4.6256 -19.94952,5.47837c7.15805,-4.31551 12.6881,-11.11178 15.27224,-19.22596c-6.71875,3.97956 -14.16106,6.87379 -22.06851,8.42428c-6.33113,-6.74459 -15.34976,-10.95673 -25.35036,-10.95673c-19.17428,0 -34.73077,15.55649 -34.73077,34.73077c0,2.71335 0.3101,5.375 0.90445,7.90746c-28.86479,-1.44712 -54.44772,-15.29808 -71.58053,-36.30709c-2.9976,5.14242 -4.70312,11.11178 -4.70312,17.49459c0,12.04206 6.1244,22.66286 15.45312,28.89062c-5.71094,-0.18088 -11.0601,-1.73137 -15.73738,-4.34135c0,0.15505 0,0.28426 0,0.43931c0,16.82271 11.96454,30.85456 27.85697,34.05889c-2.92007,0.80108 -5.96935,1.21454 -9.14783,1.21454c-2.2482,0 -4.41887,-0.20673 -6.53786,-0.62019c4.41887,13.77344 17.23617,23.85156 32.43088,24.10997c-11.86117,9.32872 -26.84915,14.85878 -43.12921,14.85878c-2.81671,0 -5.55589,-0.15505 -8.26923,-0.46515c15.34976,9.84556 33.61959,15.58233 53.23317,15.58233c63.87981,0 98.81731,-52.92308 98.81731,-98.79147c0,-1.52463 -0.02584,-3.02344 -0.10337,-4.52223c6.79628,-4.85817 12.6881,-10.98258 17.33954,-17.95974"/></g></g></g></svg>
