<?xml version="1.0"?>
<svg xmlns="http://www.w3.org/2000/svg" xmlns:xlink="http://www.w3.org/1999/xlink" version="1.1" viewBox="0 0 172 172" width="20px" height="20px"><g fill="none" fill-rule="nonzero" stroke="none" stroke-width="1" stroke-linecap="butt" stroke-linejoin="miter" stroke-miterlimit="10" stroke-dasharray="" stroke-dashoffset="0" font-family="none" font-weight="none" font-size="none" text-anchor="none" style="mix-blend-mode: normal"><path d="M0,172v-172h172v172z" fill="none"/><g fill="#ffffff"><path d="M110.08,37.84h17.2c1.89888,0 3.44,-1.54112 3.44,-3.44v-23.17528c0,-1.80256 -1.38632,-3.3024 -3.182,-3.42968c-5.47304,-0.38872 -16.16456,-0.91504 -23.85296,-0.91504c-21.12504,0 -34.88504,12.6592 -34.88504,35.66592v22.81408h-24.08c-1.89888,0 -3.44,1.54112 -3.44,3.44v24.08c0,1.89888 1.54112,3.44 3.44,3.44h24.08v65.36c0,1.89888 1.54112,3.44 3.44,3.44h24.08c1.89888,0 3.44,-1.54112 3.44,-3.44v-65.36h24.84368c1.7544,0 3.22672,-1.31752 3.41936,-3.0616l2.67632,-24.08c0.22704,-2.03648 -1.36912,-3.8184 -3.41936,-3.8184h-27.52v-17.2c0,-5.70008 4.61992,-10.32 10.32,-10.32z"/></g></g></svg>
