<?xml version="1.0"?>
<svg xmlns="http://www.w3.org/2000/svg" xmlns:xlink="http://www.w3.org/1999/xlink" version="1.1" viewBox="0 0 172 172" width="20px" height="20px"><g fill="none" fill-rule="none" stroke="none" stroke-width="1" stroke-linecap="butt" stroke-linejoin="miter" stroke-miterlimit="10" stroke-dasharray="" stroke-dashoffset="0" font-family="none" font-weight="none" font-size="none" text-anchor="none" style="mix-blend-mode: normal"><path d="M0,172v-172h172v172z" fill="none" fill-rule="nonzero"/><g fill="#cccccc" fill-rule="evenodd"><g id="surface1"><path d="M44.72,17.2l10.32,30.96v20.64h6.88v-20.64l10.32,-30.96h-6.88l-6.88,20.64l-6.88,-20.64zM82.56,30.96c-3.66844,0 -5.46906,0.57781 -7.71312,2.41875c-2.15,1.81406 -2.74125,3.21156 -2.60688,7.90125v17.2c0,3.42656 0.56438,5.68406 2.63375,7.68625c2.15,2.00219 4.17906,2.63375 7.68625,2.63375c3.66844,0 5.67063,-0.63156 7.74,-2.63375c2.15,-1.92156 2.58,-4.25969 2.58,-7.68625v-17.2c0,-3.03687 -0.5375,-5.9125 -2.62031,-7.83406c-2.15,-1.97531 -4.36719,-2.48594 -7.69969,-2.48594zM99.76,30.96v30.96c0,3.34594 3.37281,6.88 6.88,6.88c3.50719,0 5.36156,-1.76031 6.88,-3.44v3.44h6.88v-37.84h-6.88v27.52c-0.04031,2.35156 -2.80844,3.44 -3.44,3.44c-0.71219,0 -3.44,-0.14781 -3.44,-3.44v-27.52zM82.56,37.84c1.03469,0 3.44,-0.01344 3.44,3.44v17.2c0,3.3325 -2.32469,3.44 -3.44,3.44c-1.03469,0 -3.44,-0.04031 -3.44,-3.44v-17.2c0,-2.80844 1.49156,-3.44 3.44,-3.44zM34.4,75.68c-12.3625,0 -20.64,8.19688 -20.64,20.64v32.68c0,12.44313 8.2775,22.36 20.64,22.36h103.2c12.3625,0 20.64,-8.19687 20.64,-20.64v-34.4c0,-12.44312 -8.2775,-20.64 -20.64,-20.64zM41.28,89.44h20.64v6.88h-6.88v41.28h-6.88v-41.28h-6.88zM89.44,89.44h6.88v13.76c0.79281,-1.23625 1.97531,-2.21719 3.10406,-2.76812c1.10187,-0.56438 2.21719,-0.88688 3.34594,-0.88688c2.23063,0 3.9775,0.80625 5.17344,2.31125c1.19594,1.51844 2.13656,3.53406 2.13656,6.50375v20.64c0,2.55313 -0.86,4.13875 -1.98875,5.49594c-1.10187,1.35719 -2.75469,3.07719 -4.89125,3.10406c-3.61469,0.04031 -5.54969,-1.89469 -6.88,-3.44v3.44h-6.88zM61.92,99.76h6.88v27.52c0,0.79281 0.92719,3.46688 3.44,3.44c2.795,-0.02687 2.82188,-2.63375 3.44,-3.44v-27.52h6.88v37.84h-6.88v-3.44c-1.27656,1.505 -1.935,1.97531 -3.37281,2.6875c-1.42437,0.80625 -2.87562,0.7525 -4.21937,0.7525c-1.66625,0 -3.56094,-1.505 -4.44781,-2.63375c-0.79281,-1.03469 -1.72,-2.09625 -1.72,-4.24625zM124.52531,99.76c3.26531,0 5.56312,0.69875 7.29656,2.52625c1.77375,1.8275 2.33812,3.96406 2.33812,7.40406v10.70969h-13.76v5.32125c0,1.92156 0.25531,3.14438 0.7525,3.87c0.47031,0.79281 1.42438,1.14219 2.6875,1.12875c1.3975,-0.01344 2.28438,-0.29562 2.75469,-0.92719c0.48375,-0.56438 0.68531,-2.16344 0.68531,-4.23281v-1.72h6.88v2.0425c0,3.74906 -0.29562,6.54406 -2.15,8.37156c-1.74687,1.92156 -4.47469,2.80844 -8.04906,2.80844c-3.26531,0 -5.81844,-0.9675 -7.64594,-2.95625c-1.8275,-1.98875 -2.78156,-4.71656 -2.78156,-8.22375v-16.19219c0,-3.1175 1.08844,-5.42875 3.09063,-7.48469c1.6125,-1.65281 4.63594,-2.44563 7.90125,-2.44563zM99.76,104.92c-1.89469,0 -3.41312,1.70656 -3.44,3.44v20.64c0.02688,0.99438 1.54531,1.72 3.44,1.72c1.89469,0 3.44,-1.46469 3.44,-3.35937v-17.28063c0,-3.44 -1.54531,-5.16 -3.44,-5.16zM123.84,106.64c-1.89469,0 -3.41312,1.59906 -3.44,3.44v3.44h6.88v-3.44c0,-2.10969 -1.54531,-3.44 -3.44,-3.44z"/></g></g></g></svg>
